<svg version="1.2" xmlns="http://www.w3.org/2000/svg" viewBox="0 0 35 29" width="35" height="29">
	<title>twitter</title>
	<style>
		.s0 { fill: #a18866 } 
	</style>
	<path id="twitter" class="s0" d="m10.8 28.3c-4 0-7.7-1.2-10.8-3.2q0.8 0.1 1.7 0.1c3.3 0 6.3-1.2 8.7-3.1-3.1-0.1-5.7-2.1-6.6-5q0.7 0.1 1.4 0.1 0.9 0 1.8-0.2c-3.2-0.7-5.6-3.6-5.6-7q0-0.1 0-0.1c0.9 0.5 2 0.8 3.2 0.9-1.9-1.3-3.2-3.5-3.2-6 0-1.3 0.4-2.5 1-3.6 3.5 4.4 8.7 7.2 14.5 7.5q-0.2-0.8-0.2-1.6c0-4 3.2-7.2 7.1-7.2 2 0 3.8 0.9 5.1 2.3 1.6-0.4 3.1-0.9 4.5-1.8-0.5 1.7-1.6 3.1-3.1 4q2.1-0.3 4-1.1c-0.9 1.4-2.1 2.7-3.5 3.7q0 0.4 0 0.9c0 9.5-7 20.4-20 20.4"/>
</svg>