<svg version="1.2" xmlns="http://www.w3.org/2000/svg" viewBox="0 0 32 32" width="32" height="32">
	<title>whatsapp</title>
	<style>
		.s0 { fill: #a18866 } 
	</style>
	<path id="whatsapp" fill-rule="evenodd" class="s0" d="m0.5 32l2.2-8.2c-1.3-2.4-2.1-5.1-2.1-7.9 0.1-8.8 7.1-15.9 15.7-15.9 4.2 0 8.2 1.7 11.1 4.6 3 3 4.6 7 4.6 11.3 0 8.7-7 15.8-15.7 15.8q0 0 0 0c-2.6 0-5.2-0.6-7.5-1.9zm8.7-5.1l0.5 0.3c2 1.2 4.3 1.8 6.6 1.8 7.2 0 13.1-5.9 13.1-13.1 0-3.6-1.4-6.9-3.8-9.4-2.5-2.5-5.8-3.8-9.3-3.8-7.1 0-13 5.9-13 13.2 0 2.4 0.7 4.9 2 7l0.3 0.5-1.3 4.8zm14.8-5.4c-0.4 1-1.9 1.8-2.7 1.9-0.6 0.1-1.5 0.2-2.4-0.1-0.6-0.2-1.3-0.5-2.3-0.9-3.9-1.7-6.5-5.7-6.7-6-0.2-0.2-1.6-2.1-1.6-4.1 0-1.9 1.1-2.9 1.4-3.3 0.4-0.4 0.8-0.5 1.1-0.5q0.4 0 0.7 0c0.2 0.1 0.6 0 0.9 0.7 0.3 0.8 1.1 2.8 1.2 3 0.1 0.2 0.2 0.4 0 0.7-0.1 0.2-0.2 0.4-0.4 0.6-0.2 0.3-0.4 0.5-0.6 0.7-0.1 0.2-0.4 0.4-0.1 0.8 0.2 0.4 1 1.7 2.2 2.8 1.4 1.3 2.7 1.7 3.1 1.9 0.4 0.2 0.6 0.2 0.9-0.1 0.2-0.2 0.9-1.1 1.2-1.5 0.3-0.4 0.5-0.3 0.9-0.2 0.3 0.1 2.3 1.1 2.7 1.3 0.3 0.2 0.6 0.3 0.7 0.4 0.1 0.2 0.1 1-0.2 1.9z"/>
</svg>